<?xml version="1.0" encoding="utf-8"?>
<!-- Generator: Adobe Illustrator 16.0.3, SVG Export Plug-In . SVG Version: 6.00 Build 0)  -->
<!DOCTYPE svg PUBLIC "-//W3C//DTD SVG 1.1//EN" "http://www.w3.org/Graphics/SVG/1.1/DTD/svg11.dtd">
<svg version="1.1" id="Layer_1" xmlns="http://www.w3.org/2000/svg" xmlns:xlink="http://www.w3.org/1999/xlink" x="0px" y="0px"
	 width="612px" height="612px" viewBox="90 0 612 612" enable-background="new 90 0 612 612" xml:space="preserve">
<g>
	<path d="M3491.672-2638.623c-14.491,0-30.099,0-44.59,0c0-7.804,1.115-15.606-1.115-22.295
		c-76.918-216.263-153.836-432.525-230.754-648.787c-15.606-44.59-44.59-65.771-91.41-64.655c0-7.804,0-14.492,0-22.296
		c96.984-14.491,192.853-6.688,289.836,4.459c-13.377,15.606-31.213,17.837-42.36,26.754
		c-13.377,10.033-32.327,28.984-30.099,41.246c8.918,44.591,24.525,86.951,42.361,143.804
		c13.377-26.754,23.409-41.246,27.868-55.738c66.886-196.196,131.541-392.394,198.427-588.59
		c10.032-28.983,24.524-54.623,37.901-82.491c11.147,0,22.295,0,33.442,0c50.164,228.524,234.098,736.853,279.803,760.262
		c12.263-35.672,24.525-69.115,36.787-104.787c31.213-93.639,31.213-93.639-55.737-127.081c-2.229-1.115-1.115-6.689-4.459-26.755
		c76.918,0,150.491,0,224.065,0c0,11.147,0,22.296,0,33.443c-68,11.147-81.377,66.885-99.213,119.278
		c-71.344,205.115-141.574,411.345-212.918,616.459c-11.148,0-22.295,0-33.443,0c-52.393-146.032-104.786-290.95-157.18-436.983
		c-4.459-1.115-10.033-1.115-14.492-2.229C3592-2931.803,3541.836-2784.656,3491.672-2638.623z M3500.59-2858.229
		c34.558-101.443,64.656-188.394,94.755-274.229c18.95-55.738-14.492-182.82-60.197-219.607c-4.459-3.344-13.377-3.344-26.754-5.573
		c-15.606,51.278-31.213,99.213-46.819,148.262c-12.263,37.901-5.574,64.656,36.786,76.918
		c10.033,3.345,18.951,13.377,27.869,20.065c-2.229,4.459-3.344,7.804-5.573,12.263c-33.443,2.229-68,3.344-105.902,5.573
		C3443.738-3017.639,3469.377-2945.18,3500.59-2858.229z M3635.476-3680.919c-4.459-1.114-8.918-1.114-13.378-2.229
		c-30.098,85.837-59.081,172.787-90.295,261.968c69.115,0,129.312,0,196.197,0
		C3695.672-3510.361,3665.574-3596.197,3635.476-3680.919z M3859.541-2857.115c30.099-86.95,54.623-160.524,81.377-237.442
		c-57.968,0-107.017,0-163.869,0C3803.803-3016.525,3829.443-2942.951,3859.541-2857.115z M3761.442-3133.574
		c6.688,1.115,13.378,2.229,20.065,2.229c5.574-22.295,18.951-46.819,14.492-68c-6.688-40.131-20.065-79.147-34.558-115.935
		c-6.688-16.721-25.64-28.983-37.901-42.36c-5.574,21.181-20.065,44.59-15.606,62.427
		C3721.312-3240.591,3742.492-3187.082,3761.442-3133.574z"/>
	<path fill="#FFFFFF" d="M3647.737-3909.443c-12.262,27.869-27.868,54.623-37.901,82.492
		c-66.885,196.196-132.655,392.394-198.426,588.59c-5.574,15.606-14.492,28.983-27.869,55.737
		c-16.721-55.737-33.442-99.213-42.36-143.803c-2.229-11.147,16.722-30.099,30.099-41.246c11.147-8.918,27.869-11.147,42.36-26.754
		c-96.983-10.033-192.853-18.951-289.836-4.459c0-170.558,0-342.229,0-512.787
		C3297.705-3909.443,3472.722-3909.443,3647.737-3909.443z"/>
	<path fill="#FFFFFF" d="M4160.524-3407.803c-73.573,0-148.262,0-224.065,0c3.344,20.065,3.344,25.639,4.459,26.754
		c88.065,34.558,88.065,34.558,55.737,127.082c-12.263,34.558-24.524,69.115-36.786,104.787
		c-45.705-23.41-229.64-531.738-279.804-760.263c159.409,0,319.935,0,479.345,0
		C4160.524-3742.23,4160.524-3575.016,4160.524-3407.803z"/>
	<path fill="#FFFFFF" d="M3123.803-3374.361c46.82-1.114,75.804,20.065,91.41,64.655
		c76.918,216.263,153.836,432.525,230.755,648.787c2.229,6.688,1.114,14.492,1.114,22.295c-108.131,0-215.147,0-323.278,0
		C3123.803-2883.869,3123.803-3129.115,3123.803-3374.361z"/>
	<path fill="#FFFFFF" d="M3848.394-2638.623c71.344-205.115,141.573-411.345,212.918-616.459
		c17.836-51.279,31.213-108.132,99.213-119.279c0,245.246,0,490.492,0,735.738
		C4055.738-2638.623,3952.065-2638.623,3848.394-2638.623z"/>
	<path fill="#FFFFFF" d="M3491.672-2638.623c50.164-146.033,100.328-293.181,150.492-439.214c4.459,1.115,10.032,1.115,14.491,2.23
		c52.394,146.032,104.787,290.95,157.181,436.983C3706.82-2638.623,3598.688-2638.623,3491.672-2638.623z"/>
	<path fill="#FFFFFF" d="M3500.59-2858.229c-31.213-86.951-56.852-159.41-84.721-235.214c37.901-2.229,72.459-3.344,105.901-5.573
		c2.229-4.459,3.345-7.804,5.573-12.263c-8.917-6.688-17.836-17.836-27.868-20.065c-42.36-12.263-49.05-39.017-36.787-76.918
		c15.606-49.049,31.213-98.098,46.82-148.262c13.377,2.229,21.18,1.114,26.754,5.573c45.705,36.787,79.147,163.869,60.196,219.607
		C3565.246-3046.623,3536.262-2959.673,3500.59-2858.229z"/>
	<path fill="#FFFFFF" d="M3635.476-3680.919c30.099,84.722,61.312,170.558,92.524,259.738c-66.886,0-127.082,0-196.197,0
		c31.213-89.181,60.197-176.131,90.295-261.968C3626.558-3682.033,3631.017-3682.033,3635.476-3680.919z"/>
	<path fill="#FFFFFF" d="M3859.541-2857.115c-30.099-85.836-55.738-159.409-83.606-237.442c56.853,0,107.017,0,163.869,0
		C3915.278-3017.639,3889.64-2944.066,3859.541-2857.115z"/>
	<path fill="#FFFFFF" d="M3761.442-3133.574c-18.95-53.508-40.131-107.017-54.622-161.64c-4.459-17.836,10.032-41.246,15.605-62.426
		c13.378,14.491,31.213,25.639,37.902,42.36c15.606,37.901,28.983,76.918,34.557,115.935c3.345,21.18-8.917,44.59-14.491,68
		C3774.819-3132.459,3768.131-3132.459,3761.442-3133.574z"/>
</g>
<rect x="6126.951" y="212.918" fill="none" width="489.377" height="444.786"/>
<text transform="matrix(1 0 0 1 6126.5215 615.4905)" font-family="'ACaslonPro-Regular'" font-size="557.3771">A</text>
<rect x="5469.246" y="1354.426" fill="none" width="612" height="463.738"/>
<text transform="matrix(1 0 0 1 5468.8184 1757.803)" font-family="'ACaslonPro-Regular'" font-size="557.3771">W</text>
<rect x="195.344" y="-2883.869" fill="none" width="489.377" height="444.786"/>
<text transform="matrix(1 0 0 1 195.459 -2496.7048)" font-family="'TimesNewRomanPSMT'" font-size="557.3771">A</text>
<rect x="-684.197" y="-3006.492" fill="none" width="612" height="463.737"/>
<text transform="matrix(1 0 0 1 -684.627 -2619.0173)" font-family="'TimesNewRomanPSMT'" font-size="557.3771">W</text>
<g>
	<path d="M-1249.377-3072.262v10.032c-10.033,0-17.836,2.23-23.41,5.574c-5.574,3.344-11.147,10.032-16.721,18.951
		c-3.344,6.688-8.918,21.18-16.721,45.705l-102.558,297.639h-11.147l-83.606-236.327l-83.606,236.327h-10.033l-109.246-306.558
		c-7.803-23.409-13.377-36.786-15.606-40.131c-3.344-6.688-8.918-12.263-14.492-15.606c-6.688-3.344-14.492-5.574-25.64-5.574
		v-10.032h137.115v10.032h-6.689c-10.033,0-16.721,2.23-22.295,6.689s-7.803,10.032-7.803,15.606c0,6.688,4.459,21.18,12.262,43.475
		l72.459,207.345l61.312-176.131l-11.147-31.213l-8.918-24.525c-3.344-8.918-7.803-16.721-12.262-23.409
		c-2.229-3.345-5.574-6.688-8.918-8.918c-4.459-3.345-8.918-5.574-13.377-6.688c-3.344-1.115-8.918-1.115-16.721-1.115v-10.032
		h143.803v10.032h-10.033c-10.033,0-17.836,2.229-22.295,6.688s-6.689,10.033-6.689,17.836c0,8.918,4.459,25.64,12.262,47.935
		l70.23,200.656l70.229-202.886c7.803-22.295,12.262-37.901,12.262-46.82c0-4.459-1.115-7.803-4.459-11.147
		c-2.229-3.344-5.574-6.688-10.033-7.803c-6.688-2.23-15.606-3.345-26.754-3.345v-10.032h109.246V-3072.262z"/>
</g>
<path d="M566.558,234.098v10.033c15.606,1.115,24.524,4.459,28.983,7.804c4.459,4.459,6.688,8.918,6.688,14.491
	c0,6.688-2.229,17.836-7.804,32.328l-21.18,57.967h-18.951c-1.114-1.114-2.229-1.114-3.344-2.229
	c-7.804-7.803-15.607-23.41-25.64-47.935L410.492,0h-8.918L285.639,303.213c-10.033,26.754-18.951,44.59-27.869,53.508l-1.115,1.115
	h-10.033l-18.951-53.509c-6.688-16.721-8.918-30.098-8.918-37.901c0-5.573,2.229-11.147,6.688-15.606
	c4.459-4.459,13.377-6.688,25.64-7.803v-8.919H126.229v10.033c12.262,1.115,22.295,5.574,30.098,12.263
	c7.804,6.688,15.607,23.409,23.41,47.934l109.246,306.558h7.804l100.328-274.229l98.098,274.229h7.804l110.36-303.213
	c10.033-26.754,17.836-44.59,25.64-53.508c3.344-4.459,12.262-7.804,25.639-11.147v-8.919H566.558z M392.656,84.721l56.852,149.377
	H335.803L392.656,84.721z M305.705,527.279l-53.508-149.377h108.131L305.705,527.279z M368.131,357.836h-64.656
	c-3.344-4.459-5.574-8.918-5.574-13.377c0-6.689,2.23-17.837,7.804-32.328L328,254.164h31.213c1.115,1.114,2.229,1.114,3.344,2.229
	c6.689,7.803,15.607,23.409,23.41,47.934l1.115,2.229L368.131,357.836z M432.787,304.327c-5.574-15.606-7.804-26.754-8.918-34.557
	c3.344-6.688,6.688-12.263,10.032-15.606l1.115-1.115h21.18l20.066,53.508c6.688,16.722,10.032,30.099,10.032,37.902
	c0,4.459-1.114,8.918-4.459,13.377h-28.983L432.787,304.327z M511.935,527.279l-53.509-149.377h108.132L511.935,527.279z"/>
</svg>
